<?xml version="1.0" encoding="UTF-8"?>
<svg width="32px" height="32px" viewBox="0 0 32 32" version="1.1" xmlns="http://www.w3.org/2000/svg" xmlns:xlink="http://www.w3.org/1999/xlink">
    <title>icons-32x32-menu-pistons-white</title>
    <g id="0-Icons" stroke="none" stroke-width="1" fill="none" fill-rule="evenodd">
        <g id="Icons-/-32x32-/-Menu-/-Pistons-/-Black" fill="#FFFFFF" fill-rule="nonzero">
            <path d="M7.5,18 C8.32842712,18 9,18.6715729 9,19.5 L9,19.5 L9,24.999 L24.5,25 C25.3284271,25 26,25.6715729 26,26.5 C26,27.3284271 25.3284271,28 24.5,28 L24.5,28 L9,27.999 L9,28 L8,28 C6.8954305,28 6,27.1045695 6,26 L6,26 L6,19.5 C6,18.6715729 6.67157288,18 7.5,18 Z M24.7272413,4.51794919 L26.7272413,7.98205081 C27.0033837,8.46034343 26.8395086,9.07193384 26.3612159,9.34807621 C25.8829233,9.62421859 25.2713329,9.46034343 24.9951905,8.98205081 L24.495,8.11578222 L21.8971143,9.6160254 L24.1291651,9.48205081 L25.1291651,11.2141016 L16.4689111,16.2141016 L11.2727587,19.2141016 L7.27275866,12.2858984 L12.4689111,9.28589838 L21.1291651,4.28589838 L22.1291651,6.01794919 L20.8971143,7.8839746 L23.495,6.38378222 L22.9951905,5.51794919 C22.7190482,5.03965657 22.8829233,4.42806616 23.3612159,4.15192379 C23.8395086,3.87578141 24.451099,4.03965657 24.7272413,4.51794919 Z M12.603,11.5187822 L10.0052904,13.0187822 L12.0052904,16.4828838 L14.603,14.9827822 L12.603,11.5187822 Z M18.6655445,8.01878222 L13.469,11.0187822 L15.469,14.4827822 L20.6655445,11.4828838 L18.6655445,8.01878222 Z" id="Combined-Shape"></path>
        </g>
    </g>
</svg>