<?xml version="1.0" encoding="UTF-8"?>
<svg width="32px" height="32px" viewBox="0 0 32 32" version="1.1" xmlns="http://www.w3.org/2000/svg" xmlns:xlink="http://www.w3.org/1999/xlink">
    <title>icons-32x32-menu-product-control-white</title>
    <g id="0-Icons" stroke="none" stroke-width="1" fill="none" fill-rule="evenodd">
        <g id="Icons-/-32x32-/-Menu-/-Product-Control-/-Black-" fill="#FFFFFF">
            <path d="M14.9909653,12 L25.9912112,17.5001229 L25.9912112,24.7383842 L16.9908998,29.2362319 L6,23.7359479 L6,16.5004268 L14.9909653,12 Z M7.999,19.219 L8,22.500366 L16,26.504 L16,23.156 L7.999,19.219 Z M23.991,20.155 L18,23.151 L18,26.496 L23.9912112,23.5020327 L23.991,20.155 Z M14.9914571,14.2363139 L8.75,17.359 L16.9963738,21.4166583 L23.174,18.327 L14.9914571,14.2363139 Z M13,4 C14.3062188,4 15.4174579,4.83480763 15.8292943,6 L27,6 L27,8 L15.8292943,8 C15.4174579,9.16519237 14.3062188,10 13,10 C11.6937812,10 10.5825421,9.16519237 10.1707057,8 L5,8 L5,6 L10.1707057,6 C10.5825421,4.83480763 11.6937812,4 13,4 Z M13,5 C11.8954305,5 11,5.8954305 11,7 C11,8.1045695 11.8954305,9 13,9 C14.1045695,9 15,8.1045695 15,7 C15,5.8954305 14.1045695,5 13,5 Z" id="Combined-Shape"></path>
        </g>
    </g>
</svg>