<?xml version="1.0" encoding="UTF-8"?>
<svg width="32px" height="32px" viewBox="0 0 32 32" version="1.1" xmlns="http://www.w3.org/2000/svg" xmlns:xlink="http://www.w3.org/1999/xlink">
    <title>icons-32x32-menu-one-shot-white</title>
    <g id="0-Icons" stroke="none" stroke-width="1" fill="none" fill-rule="evenodd">
        <g id="Icons-/-32x32-/-Menu-/-One-Shot-/-Black" fill="#FFFFFF" fill-rule="nonzero">
            <path d="M9.08614175,24.0005405 L9.11958368,24.0862533 L9.11958368,24.0862533 L9.1586878,24.1708204 L10.7968844,27.4472136 C10.9474551,27.748355 11.2377758,27.9509034 11.5664563,27.9921964 L11.6913116,28 L20.4552436,28 C20.7919299,28 21.1029301,27.8309117 21.286854,27.5553977 L21.3496708,27.4472136 L22.9878674,24.1708204 C23.0155325,24.1154902 23.0396745,24.0586508 23.0602129,24.0006431 L27,24 L27,30 L5,30 L5,24 L9.08614175,24.0005405 Z M16,17.0010129 C18,19.2291015 19,20.8954305 19,22 C19,23.6568542 17.6568542,25 16,25 C14.3431458,25 13,23.6568542 13,22 C13,20.8954305 14,19.2291015 16,17.0010129 Z M16,20.5 C15.1715729,20.5 14.5,21.1715729 14.5,22 C14.5,22.8284271 15.1715729,23.5 16,23.5 C16.8284271,23.5 17.5,22.8284271 17.5,22 C17.5,21.1715729 16.8284271,20.5 16,20.5 Z M11,2 L11,7.51358895 L13.6697958,14 L18.3302042,14 L21,7.51358895 L21,2 L23,2 L23,7.71134021 C23,7.84191012 22.9744296,7.97121623 22.9247323,8.09195844 L19.9247323,15.3806182 C19.7704769,15.7553897 19.4052757,16 19,16 L13,16 C12.5947243,16 12.2295231,15.7553897 12.0752677,15.3806182 L9.07526773,8.09195844 C9.02557045,7.97121623 9,7.84191012 9,7.71134021 L9,2 L11,2 Z" id="Combined-Shape"></path>
        </g>
    </g>
</svg>