<?xml version="1.0" encoding="UTF-8"?>
<svg width="32px" height="32px" viewBox="0 0 32 32" version="1.1" xmlns="http://www.w3.org/2000/svg" xmlns:xlink="http://www.w3.org/1999/xlink">
    <!-- Generator: Sketch 50.2 (55047) - http://www.bohemiancoding.com/sketch -->
    <title>Icons / Process / Process_PressingtableLeft_White</title>
    <desc>Created with Sketch.</desc>
    <defs></defs>
    <g id="Icons-/-Process-/-Process_PressingtableLeft_White" stroke="none" stroke-width="1" fill="none" fill-rule="evenodd">
        <path d="M27.0828922,24 L25.4599991,22.3771069 L26.1671059,21.6700001 L28.287766,23.7906602 L28.2884262,23.79 L28.995533,24.4971067 L28.9948728,24.497767 L28.995533,24.4984272 L28.2884262,25.205534 L28.287766,25.2048738 L26.1671059,27.3255339 L25.4599991,26.6184271 L27.0784262,25 L24.6611969,25 C22.2782622,26.8788624 19.2700589,28 16,28 C12.7299411,28 9.72173784,26.8788624 7.33880306,25 L3,25 L3,24 L7.5,24 C7.63337486,24 7.7545526,24.052222 7.84420149,24.1373343 L7.85156157,24.1298945 C10.0807464,25.92532 12.9148707,27 16,27 C19.0807276,27 21.9111659,25.9283844 24.1388933,24.1375749 L24.1470802,24.1458141 C24.2375119,24.0557037 24.3622508,24 24.5,24 L27.0828922,24 Z" id="Combined-Shape" fill="#FFFFFF" transform="translate(15.997766, 24.835000) scale(-1, 1) translate(-15.997766, -24.835000) "></path>
        <circle id="Oval" stroke="#FFFFFF" stroke-width="2" transform="translate(16.000000, 14.000000) scale(-1, 1) translate(-16.000000, -14.000000) " cx="16" cy="14" r="9"></circle>
        <circle id="Oval-2" fill="#FFFFFF" transform="translate(16.000000, 14.000000) scale(-1, 1) translate(-16.000000, -14.000000) " cx="16" cy="14" r="2"></circle>
    </g>
</svg>