<?xml version="1.0" encoding="UTF-8"?>
<svg width="24px" height="24px" viewBox="0 0 24 24" version="1.1" xmlns="http://www.w3.org/2000/svg" xmlns:xlink="http://www.w3.org/1999/xlink">
    <!-- Generator: Sketch 50.2 (55047) - http://www.bohemiancoding.com/sketch -->
    <title>Icons / Process / ProcessAddOn_Status_Error</title>
    <desc>Created with Sketch.</desc>
    <defs></defs>
    <g id="Icons-/-Process-/-ProcessAddOn_Status_Error" stroke="none" stroke-width="1" fill="none" fill-rule="evenodd">
        <polygon id="Triangle" fill="#F3103E" fill-rule="nonzero" points="22 22 2 22 12 2"></polygon>
        <g id="Group" transform="translate(10.500000, 9.500000)" fill="#383838" stroke="#383838" stroke-width="0.5">
            <path d="M1.53621531,5.78933296 C1.72642022,5.78933296 1.85718413,5.76357643 1.92851097,5.7120626 C1.99983781,5.66054877 2.04342578,5.5753541 2.05927619,5.45647603 L2.54667383,0.309081431 C2.54667383,0.103026113 2.34062161,0 1.92851097,0 L1.11816286,0 C0.706052227,0 0.5,0.103026113 0.5,0.309081431 L0.987397641,5.45647603 C1.00324805,5.5753541 1.04683602,5.66054877 1.11816286,5.7120626 C1.1894897,5.76357643 1.32025362,5.78933296 1.51045852,5.78933296 L1.53621531,5.78933296 Z" id="Path"></path>
            <path d="M1.41209036,9.07054744 C0.999979725,9.07054744 0.793927498,8.95959624 0.793927498,8.73769051 L0.793927498,7.75100748 C0.793927498,7.52910175 0.999979725,7.41815056 1.41209036,7.41815056 L1.63125619,7.41815056 C2.04336683,7.41815056 2.24941905,7.52910175 2.24941905,7.75100748 L2.24941905,8.73769051 C2.24941905,8.95959624 2.04336683,9.07054744 1.63125619,9.07054744 L1.41209036,9.07054744 Z" id="Path"></path>
        </g>
    </g>
</svg>